<?xml version="1.0" encoding="UTF-8"?>
<svg width="256" height="256" xmlns="http://www.w3.org/2000/svg">
  <defs>
    <linearGradient id="grad" x1="0%" y1="0%" x2="100%" y2="100%">
      <stop offset="0%" style="stop-color:#4B0000;stop-opacity:1" />
      <stop offset="100%" style="stop-color:#0a0a0a;stop-opacity:1" />
    </linearGradient>
    <filter id="glow">
      <feGaussianBlur stdDeviation="3" result="coloredBlur"/>
      <feMerge><feMergeNode in="coloredBlur"/><feMergeNode in="SourceGraphic"/></feMerge>
    </filter>
  </defs>
  <rect width="256" height="256" fill="url(#grad)"/>
  <line x1="0" y1="128" x2="256" y2="128" stroke="#8B0000" stroke-width="1" opacity="0.2"/>
  <line x1="128" y1="0" x2="128" y2="256" stroke="#8B0000" stroke-width="1" opacity="0.2"/>
  <circle cx="128" cy="128" r="95" fill="#8B0000" opacity="0.15" filter="url(#glow)"/>
  <circle cx="128" cy="128" r="85" fill="none" stroke="#8B0000" stroke-width="2" opacity="0.6"/>
  <circle cx="128" cy="128" r="80" fill="none" stroke="#8B0000" stroke-width="1" opacity="0.3"/>
  <circle cx="128" cy="128" r="70" fill="#8B0000" opacity="0.1"/>
  <text x="128" y="105" font-family="Arial, sans-serif" font-size="16" font-weight="bold" text-anchor="middle" fill="#8B0000" letter-spacing="1">Brutal Bastion</text>
  <text x="128" y="155" font-family="Arial, sans-serif" font-size="11" text-anchor="middle" fill="#8B0000" opacity="0.8">Fort</text>
  <polygon points="10,10 30,10 10,30" fill="#8B0000" opacity="0.5"/>
  <polygon points="246,10 226,10 246,30" fill="#8B0000" opacity="0.5"/>
  <polygon points="10,246 30,226 10,226" fill="#8B0000" opacity="0.5"/>
  <polygon points="246,246 226,226 246,226" fill="#8B0000" opacity="0.5"/>
  <circle cx="128" cy="128" r="4" fill="#8B0000"/>
  <circle cx="128" cy="128" r="8" fill="none" stroke="#8B0000" stroke-width="1" opacity="0.5"/>
</svg>